<svg width="512" height="512" xmlns="http://www.w3.org/2000/svg">
<!-- 
 <g>
  <title>Layer 1</title>
  <g transform="rotate(-28 100.5 312)" id="svg_7">
   <path id="svg_4" d="m-9,221l-48,81l275,1l-49,-72l-178,-10z" stroke="#000" fill="#fff"/>
   <ellipse ry="29.5" rx="114" id="svg_5" cy="421.5" cx="150" stroke="#000" fill="#fff"/>
   <ellipse ry="24" rx="52.5" id="svg_6" cy="197" cx="-10.5" stroke="#000" fill="#fff"/>
  </g>
 </g> -->


    <!-- <defs>
        <linearGradient id="grad1" x1="100%" y1="0%" x2="70%" y2="100%">
            <stop offset="0%" style="stop-color:#1e2e4a;stop-opacity:1" />
            <stop offset="100%" style="stop-color:#5a8ade;stop-opacity:1" />
        </linearGradient>
    </defs>
    <g>
        <title>Layer 1</title>

        <path fill="white" stroke="none" stroke-width="0" d="
        M0,0 h 256 v 256 h -256 Z"/>

        <path fill="url(#grad1)" stroke="none" stroke-width="0" d="
        M128,48 l80,60 l-80,60 l-80,-60 Z
        m-80,60 m16,28 l64,48 l64,-48 l16,12 l-80,60 l-80,-60 Z"/>

        <path fill="#f22" stroke="none" stroke-width="0" d="
        M128,48 m0,12 l16,12 l-16,12 l-16,-12 Z
        m16,12 m8, 6 l16,12 l-16,12 l-16,-12 Z
        m16,12 m8,6 l16,12 l-16,12 l-16,-12 Z
        "/>

        <path fill="#0bf" stroke="none" stroke-width="0" d="
        M128,48 m0,120 m0,-36 l16,12 l-16,12 l-16,-12 Z
        m-24,-18 l16,12 l-16,12 l-16,-12 Z
        m-24,-18 l16,12 l-16,12 l-16,-12 Z
        "/>
    </g> -->

    <g visibility="hidden">
        <title>Gridlines</title>
        <path fill="white" stroke="none" stroke-width="0" d="
        M0,0 h 512 v 512 h -512 Z"/>

        <circle cx="256" cy="256" r="171" stroke="lightgray" stroke-width="2" fill="none" />
        <circle cx="256" cy="256" r="196" stroke="lightgray" stroke-width="2" fill="none" />
        <circle cx="256" cy="256" r="227" stroke="lightgray" stroke-width="2" fill="none" />
        <line x1="0" y1="0" x2="512" y2="512" stroke="lightgray" stroke-width="2"/>
        <line x1="0" y1="512" x2="512" y2="0" stroke="lightgray" stroke-width="2"/>
    </g>

    <g transform="rotate(-135, 256, 256)" visibility="hidden">
        <title>Layer 1</title>

        <path fill="#c2c0c8" stroke="none" stroke-width="0" d="
        M256,96 m-18,-16 h36 v288 l-18,64 l-18,-64 Z"/>
    </g>

    <g transform="rotate(-34, 256, 256)" visibility="visible">
        <title>Layer 2</title>
        <path fill="#ce4b42" stroke="none" stroke-width="0" d="
        M256,96 m0,-8 h64 a22,22,0,0,1,16,32 l-16,32 h-128
        l-16,-32 a22,22,0,0,1,16,-32 Z" />

        <!--  white outside stroke -->
        <!-- <path fill="none" stroke="white" stroke-width="8" d="
        M256,96 m-64,64 h128 l56,224 a26,26,0,0,1,-24,32 h-192
        a26,25,0,0,1,-24,-32 Z "/>  -->

        <path fill="#295c86" stroke="none" stroke-width="0" d="
        M256,96 m-64,64 h128 l56,224 a26,26,0,0,1,-24,32 h-192
        a26,25,0,0,1,-24,-32 Z "/>


        <path fill="#378681" stroke="none" stroke-width="0" d="
        M256,96 m-64,64 h128 l48,192 h-224 Z "/>

        <path fill="#c7d07e" stroke="none" stroke-width="0" d="
        M256,96 m-64,64 h128 l32,128 h-192 Z "/>

        <path fill="#c0823b" stroke="none" stroke-width="0" d="
        M256,96 m-64,64 h128 l16,64 h-160 Z "/>

    </g>

</svg>